<svg width="488" height="261" viewBox="0 0 488 261" fill="none" xmlns="http://www.w3.org/2000/svg">
<rect x="143" y="142" width="22" height="118" fill="#FF5851"/>
<rect x="165" y="142" width="50" height="24" fill="#FF5851"/>
<rect x="165" y="189" width="29" height="24" fill="#FF5851"/>
<rect x="165" y="236" width="50" height="24" fill="#FF5851"/>
<rect x="240" y="7" width="22" height="118" fill="#FF5851"/>
<rect x="221" y="29" width="22" height="61" transform="rotate(-90 221 29)" fill="#FF5851"/>
<rect x="446" y="7" width="22" height="118" fill="#FF5851"/>
<rect x="427" y="29" width="22" height="61" transform="rotate(-90 427 29)" fill="#FF5851"/>
<ellipse cx="99.5" cy="66" rx="36.5" ry="59" fill="#FF5851"/>
<ellipse cx="99.4999" cy="66" rx="23.5085" ry="38" fill="#F8F8F8"/>
<path d="M59 125C43.3522 125 28.3453 118.784 17.2807 107.719C6.21606 96.6547 1.18137e-06 81.6478 0 66C-1.18137e-06 50.3522 6.21605 35.3454 17.2807 24.2807C28.3453 13.2161 43.3522 7 59 7L59 30.8549C49.6789 30.8549 40.7396 34.5577 34.1486 41.1487C27.5577 47.7396 23.8549 56.6789 23.8549 66C23.8549 75.3211 27.5577 84.2604 34.1486 90.8514C40.7396 97.4423 49.6789 101.145 59 101.145L59 125Z" fill="#FF5851"/>
<path d="M420 125C404.352 125 389.345 118.784 378.281 107.719C367.216 96.6547 361 81.6478 361 66C361 50.3522 367.216 35.3454 378.281 24.2807C389.345 13.2161 404.352 7 420 7L420 30.8549C410.679 30.8549 401.74 34.5577 395.149 41.1487C388.558 47.7396 384.855 56.6789 384.855 66C384.855 75.3211 388.558 84.2604 395.149 90.8514C401.74 97.4423 410.679 101.145 420 101.145V125Z" fill="#FF5851"/>
<rect x="143" y="7" width="18" height="118" fill="#FF5851"/>
<rect x="197" y="7" width="18" height="118" fill="#FF5851"/>
<path d="M145.483 18.0228L161.207 7.02275L212.371 114.014L196.793 125.023L145.483 18.0228Z" fill="#FF5851"/>
<path d="M308 7.17806L330 7.17808L296 125.178L274 125.178L308 7.17806Z" fill="#FF5851"/>
<path d="M308 7.17805L330 7.17806L368 125.178L346 125.178L308 7.17805Z" fill="#FF5851"/>
<rect x="296" y="75.1781" width="45" height="22" fill="#FF5851"/>
<path d="M36.9352 142.526H58.9352L59.4961 260.053H37.4961L36.9352 142.526Z" fill="#FF5851"/>
<path d="M36.9351 142.526L58.9351 142.526L96.496 212.053L74.496 212.053L36.9351 142.526Z" fill="#FF5851"/>
<path d="M111.496 142.526H133.496V260.053H111.496V142.526Z" fill="#FF5851"/>
<path d="M111.496 142.526L133.496 142.526L96.4962 212.053L74.4962 212.053L111.496 142.526Z" fill="#FF5851"/>
</svg>
