<svg width="398" height="251" viewBox="0 0 398 251" fill="none" xmlns="http://www.w3.org/2000/svg">
<rect x="119" y="133" width="22" height="118" fill="#FF5851"/>
<rect x="141" y="133" width="50" height="24" fill="#FF5851"/>
<rect x="141" y="180" width="29" height="24" fill="#FF5851"/>
<rect x="141" y="227" width="50" height="24" fill="#FF5851"/>
<ellipse cx="194.5" cy="59" rx="36.5" ry="59" fill="#FF5851"/>
<ellipse cx="194.5" cy="59" rx="23.5085" ry="38" fill="#F8F8F8"/>
<rect x="17" width="22" height="118" fill="#FF5851"/>
<path d="M39 0C44.1216 0 49.193 1.00877 53.9247 2.9687C58.6564 4.92863 62.9557 7.80135 66.5772 11.4228C70.1986 15.0443 73.0714 19.3437 75.0313 24.0753C76.9912 28.807 78 33.8784 78 39C78 44.1216 76.9912 49.193 75.0313 53.9247C73.0714 58.6564 70.1986 62.9557 66.5772 66.5772C62.9557 70.1987 58.6563 73.0714 53.9247 75.0313C49.193 76.9912 44.1216 78 39 78L39 56.2788C41.2691 56.2788 43.516 55.8319 45.6123 54.9636C47.7087 54.0952 49.6135 52.8225 51.218 51.218C52.8225 49.6135 54.0952 47.7087 54.9636 45.6123C55.8319 43.516 56.2788 41.2691 56.2788 39C56.2788 36.7309 55.8319 34.484 54.9636 32.3877C54.0952 30.2913 52.8225 28.3865 51.218 26.782C49.6135 25.1775 47.7087 23.9048 45.6123 23.0364C43.516 22.1681 41.2691 21.7212 39 21.7212L39 0Z" fill="#FF5851"/>
<rect x="85" width="22" height="118.207" fill="#FF5851"/>
<path d="M107 -6.86646e-05C112.122 -6.86646e-05 117.193 1.01047 121.925 2.97383C126.656 4.9372 130.956 7.81496 134.577 11.4428C138.199 15.0706 141.071 19.3775 143.031 24.1175C144.991 28.8575 146 33.9378 146 39.0683C146 44.1988 144.991 49.2791 143.031 54.0191C141.071 58.7591 138.199 63.066 134.577 66.6938C130.956 70.3216 126.656 73.1994 121.925 75.1628C117.193 77.1261 112.122 78.1367 107 78.1367L107 56.3774C109.269 56.3774 111.516 55.9297 113.612 55.0599C115.709 54.19 117.613 52.915 119.218 51.3077C120.822 49.7004 122.095 47.7923 122.964 45.6922C123.832 43.5922 124.279 41.3414 124.279 39.0683C124.279 36.7952 123.832 34.5444 122.964 32.4444C122.095 30.3443 120.822 28.4362 119.218 26.8289C117.614 25.2216 115.709 23.9466 113.612 23.0767C111.516 22.2069 109.269 21.7592 107 21.7592V-6.86646e-05Z" fill="#FF5851"/>
<path d="M108 68.107L127.602 58.1017L157.927 118.065L133.382 118.01L108 68.107Z" fill="#FF5851"/>
<rect x="84" y="133" width="22" height="79" fill="#FF5851"/>
<path d="M106.137 211C106.137 216.122 105.126 221.193 103.163 225.925C101.199 230.656 98.3217 234.956 94.6939 238.577C91.066 242.199 86.7592 245.071 82.0192 247.031C77.2792 248.991 72.1989 250 67.0684 250C61.9378 250 56.8575 248.991 52.1175 247.031C47.3776 245.071 43.0707 242.199 39.4429 238.577C35.815 234.956 32.9373 230.656 30.9739 225.925C29.0105 221.193 28 216.122 28 211L50.0845 211C50.0845 213.226 50.5238 215.431 51.3773 217.488C52.2308 219.545 53.4819 221.414 55.059 222.988C56.6361 224.563 58.5083 225.812 60.5689 226.664C62.6295 227.516 64.838 227.954 67.0684 227.954C69.2987 227.954 71.5072 227.516 73.5678 226.664C75.6284 225.812 77.5007 224.563 79.0778 222.988C80.6549 221.414 81.9059 219.545 82.7594 217.488C83.6129 215.431 84.0522 213.226 84.0522 211H106.137Z" fill="#FF5851"/>
<path d="M257 251C241.352 251 226.345 244.784 215.281 233.719C204.216 222.655 198 207.648 198 192C198 176.352 204.216 161.345 215.281 150.281C226.345 139.216 241.352 133 257 133L257 156.855C247.679 156.855 238.74 160.558 232.149 167.149C225.558 173.74 221.855 182.679 221.855 192C221.855 201.321 225.558 210.26 232.149 216.851C238.74 223.442 247.679 227.145 257 227.145V251Z" fill="#FF5851"/>
<rect x="288" y="133" width="22" height="118" fill="#FF5851"/>
<rect x="269" y="155" width="22" height="61" transform="rotate(-90 269 155)" fill="#FF5851"/>
<path d="M398 221.5C398 225.374 397.211 229.21 395.678 232.789C394.146 236.368 391.899 239.62 389.067 242.36C386.235 245.099 382.872 247.272 379.172 248.754C375.471 250.237 371.505 251 367.5 251C363.495 251 359.529 250.237 355.828 248.754C352.128 247.272 348.765 245.099 345.933 242.36C343.101 239.62 340.854 236.368 339.322 232.789C337.789 229.21 337 225.374 337 221.5L358.973 221.5C358.973 222.583 359.194 223.655 359.622 224.656C360.051 225.657 360.679 226.566 361.471 227.332C362.262 228.097 363.202 228.705 364.237 229.119C365.271 229.534 366.38 229.747 367.5 229.747C368.62 229.747 369.729 229.534 370.763 229.119C371.798 228.705 372.738 228.097 373.529 227.332C374.321 226.566 374.949 225.657 375.378 224.656C375.806 223.655 376.027 222.583 376.027 221.5H398Z" fill="#FF5851"/>
<path d="M337 162.5C337 158.626 337.789 154.79 339.322 151.211C340.854 147.632 343.101 144.38 345.933 141.64C348.765 138.901 352.128 136.728 355.828 135.246C359.529 133.763 363.495 133 367.5 133C371.505 133 375.471 133.763 379.172 135.246C382.872 136.728 386.235 138.901 389.067 141.64C391.899 144.38 394.146 147.632 395.678 151.211C397.211 154.79 398 158.626 398 162.5L376.027 162.5C376.027 161.417 375.807 160.344 375.378 159.344C374.95 158.343 374.321 157.434 373.53 156.668C372.738 155.902 371.798 155.295 370.763 154.88C369.729 154.466 368.62 154.252 367.5 154.252C366.38 154.252 365.271 154.466 364.237 154.88C363.202 155.295 362.262 155.902 361.47 156.668C360.679 157.434 360.05 158.343 359.622 159.344C359.193 160.344 358.973 161.417 358.973 162.5H337Z" fill="#FF5851"/>
<path d="M345.933 183.36C342.441 179.982 339.849 175.835 338.38 171.274C336.911 166.714 336.609 161.876 337.5 157.178L359.187 161.025C358.94 162.327 359.024 163.668 359.431 164.931C359.838 166.195 360.556 167.344 361.524 168.28L345.933 183.36Z" fill="#FF5851"/>
<path d="M389.067 200.64C392.341 203.807 394.827 207.653 396.335 211.887C397.844 216.121 398.336 220.632 397.775 225.078L375.964 222.5C376.121 221.257 375.984 219.996 375.562 218.812C375.14 217.629 374.445 216.553 373.53 215.668L389.067 200.64Z" fill="#FF5851"/>
<path d="M360.5 167L389.5 201L374 216L345.5 183L360.5 167Z" fill="#FF5851"/>
</svg>
